<?xml version="1.0" standalone="no"?>
<!DOCTYPE svg PUBLIC "-//W3C//DTD SVG 20010904//EN"
 "http://www.w3.org/TR/2001/REC-SVG-20010904/DTD/svg10.dtd">
<svg version="1.0" xmlns="http://www.w3.org/2000/svg"
 width="700.000000pt" height="700.000000pt" viewBox="0 0 700.000000 700.000000"
 preserveAspectRatio="xMidYMid meet">
<metadata>
Created by potrace 1.11, written by Peter Selinger 2001-2013
</metadata>
<g transform="translate(0.000000,700.000000) scale(0.100000,-0.100000)"
fill="#000000" stroke="none">
<path d="M3330 6553 c-116 -19 -240 -82 -321 -162 -70 -71 -119 -156 -926
-1621 -481 -872 -1899 -3454 -1926 -3505 -19 -38 -7 -178 24 -275 80 -251 295
-450 569 -527 62 -17 181 -18 2750 -18 2569 0 2688 1 2750 18 274 77 489 276
569 527 26 82 43 237 29 265 -17 32 -1159 2049 -1818 3210 -741 1305 -1019
1790 -1059 1849 -102 147 -317 248 -525 245 -50 -1 -102 -4 -116 -6z m275
-284 c65 -24 125 -68 157 -116 41 -61 656 -1141 2108 -3703 l722 -1274 -12
-61 c-37 -191 -212 -355 -425 -400 -106 -22 -5204 -22 -5310 0 -214 45 -388
209 -425 400 l-12 61 672 1224 c1100 2004 1949 3542 2064 3737 52 89 118 134
226 154 63 11 174 1 235 -22z"/>
<path d="M3413 5979 c-75 -10 -170 -58 -227 -115 -194 -194 -136 -520 114
-638 60 -29 73 -31 170 -31 99 0 110 2 171 32 79 39 150 111 185 188 132 288
-98 603 -413 564z"/>
<path d="M2915 5075 c-286 -64 -406 -405 -224 -636 172 -217 513 -191 657 52
77 129 63 318 -34 444 -87 114 -255 173 -399 140z"/>
<path d="M3926 5079 c-121 -20 -242 -113 -293 -226 -114 -249 61 -543 333
-561 121 -8 226 31 309 115 130 129 153 340 54 494 -62 97 -159 160 -276 179
-64 11 -58 11 -127 -1z"/>
<path d="M2415 4196 c-198 -63 -320 -254 -286 -448 56 -318 440 -443 670 -219
185 180 151 481 -69 621 -88 56 -222 75 -315 46z"/>
<path d="M3380 4196 c-133 -37 -233 -136 -277 -271 -18 -54 -18 -181 1 -231
68 -191 254 -308 438 -275 212 37 346 203 336 415 -7 174 -124 317 -293 362
-61 17 -145 16 -205 0z"/>
<path d="M4328 4191 c-75 -24 -116 -51 -170 -109 -129 -138 -145 -327 -42
-489 107 -169 350 -229 524 -129 182 104 256 337 165 522 -85 173 -297 265
-477 205z"/>
<path d="M1961 3329 c-205 -35 -354 -242 -322 -446 30 -191 181 -330 370 -341
344 -19 545 368 335 644 -84 110 -238 167 -383 143z"/>
<path d="M2966 3329 c-75 -12 -167 -62 -220 -119 -114 -122 -140 -291 -67
-445 114 -246 443 -301 636 -108 130 129 153 340 54 494 -62 97 -159 160 -276
179 -64 11 -58 11 -127 -1z"/>
<path d="M3968 3330 c-177 -31 -315 -187 -326 -369 -17 -302 288 -511 562
-383 202 94 285 325 191 530 -71 156 -256 252 -427 222z"/>
<path d="M4953 3325 c-298 -66 -411 -427 -205 -656 183 -204 521 -157 647 90
150 297 -117 638 -442 566z"/>
<path d="M1485 2503 c-185 -56 -306 -250 -275 -439 52 -321 444 -451 673 -222
214 214 120 575 -172 664 -59 18 -163 17 -226 -3z"/>
<path d="M2445 2501 c-67 -22 -111 -50 -162 -103 -171 -177 -140 -468 64 -604
73 -48 132 -66 223 -65 116 0 204 36 284 117 205 208 119 558 -161 655 -70 24
-179 24 -248 0z"/>
<path d="M3425 2507 c-70 -24 -121 -55 -170 -104 -164 -163 -151 -441 28 -587
257 -210 647 -30 649 300 0 88 -21 158 -67 229 -73 109 -180 167 -315 172 -52
2 -101 -2 -125 -10z"/>
<path d="M4385 2503 c-145 -44 -254 -173 -275 -325 -37 -260 189 -485 450
-448 321 45 453 444 223 673 -104 104 -258 143 -398 100z"/>
<path d="M5354 2505 c-92 -29 -181 -99 -229 -180 -104 -179 -49 -417 122 -531
73 -48 132 -66 223 -65 116 0 204 36 282 115 207 210 122 560 -159 657 -65 22
-176 24 -239 4z"/>
<path d="M959 1686 c-108 -41 -191 -113 -235 -202 -165 -338 180 -693 524
-539 70 31 148 107 186 181 100 194 17 438 -184 537 -57 28 -75 32 -160 34
-61 2 -108 -2 -131 -11z"/>
<path d="M1943 1686 c-144 -47 -250 -171 -275 -321 -29 -171 62 -342 222 -419
60 -29 73 -31 170 -31 97 0 110 2 170 31 301 145 301 568 1 717 -55 27 -76 32
-155 34 -57 2 -107 -2 -133 -11z"/>
<path d="M2923 1686 c-233 -75 -348 -345 -238 -559 125 -242 449 -293 638
-102 192 196 135 520 -113 639 -56 27 -78 31 -155 33 -55 2 -106 -3 -132 -11z"/>
<path d="M3903 1686 c-186 -60 -306 -255 -273 -445 45 -263 321 -407 563 -294
258 121 304 463 89 660 -15 13 -56 39 -92 56 -57 28 -77 32 -155 34 -55 2
-106 -3 -132 -11z"/>
<path d="M4875 1682 c-182 -64 -295 -251 -265 -437 43 -265 320 -411 563 -298
302 142 301 573 -3 717 -56 27 -78 31 -155 33 -65 2 -104 -2 -140 -15z"/>
<path d="M5855 1682 c-270 -95 -357 -437 -164 -647 78 -85 175 -126 294 -126
163 1 291 85 363 239 24 50 27 69 27 157 0 91 -3 106 -31 165 -39 83 -111 155
-194 194 -56 27 -78 31 -155 33 -65 2 -104 -2 -140 -15z"/>
</g>
</svg>
